<svg xmlns="http://www.w3.org/2000/svg" viewBox="0 0 36 36" width="36" height="36">
  <rect width="36" height="36" rx="8" fill="hsl(176, 65%, 43%)"/>
  <path d="M7 13c2.5 0 3.5 2.5 6 2.5S16.5 13 19 13s3.5 2.5 6 2.5S28.5 13 31 13" stroke="white" stroke-width="2.2" stroke-linecap="round" fill="none"/>
  <path d="M7 18c2.5 0 3.5 2.5 6 2.5S16.5 18 19 18s3.5 2.5 6 2.5S28.5 18 31 18" stroke="white" stroke-width="2.2" stroke-linecap="round" fill="none"/>
  <path d="M7 23c2.5 0 3.5 2.5 6 2.5S16.5 23 19 23s3.5 2.5 6 2.5S28.5 23 31 23" stroke="white" stroke-width="2.2" stroke-linecap="round" fill="none"/>
</svg>
